<?xml version="1.0" ?><!DOCTYPE svg  PUBLIC '-//W3C//DTD SVG 1.1//EN'  'http://www.w3.org/Graphics/SVG/1.1/DTD/svg11.dtd'><svg fill="currentColor" enable-background="new 0 0 24 24" height="24px" id="Layer_1" version="1.1" viewBox="0 0 24 24" width="24px" xml:space="preserve" xmlns="http://www.w3.org/2000/svg" xmlns:xlink="http://www.w3.org/1999/xlink"><g><g><g><path d="M19.7,23.5H4.3c-2.1,0-3.8-1.7-3.8-3.8V4.3c0-2.1,1.7-3.8,3.8-3.8h15.3c2.1,0,3.8,1.7,3.8,3.8v15.3     C23.5,21.8,21.8,23.5,19.7,23.5z M4.3,1.5c-1.6,0-2.8,1.3-2.8,2.8v15.3c0,1.6,1.3,2.8,2.8,2.8h15.3c1.6,0,2.8-1.3,2.8-2.8V4.3     c0-1.6-1.3-2.8-2.8-2.8H4.3z"/></g></g><g><g><path d="M16.5,7.9c-0.3,0-0.5-0.2-0.5-0.5V6.1H7.5C7.2,6.1,7,5.9,7,5.6s0.2-0.5,0.5-0.5h9c0.3,0,0.5,0.2,0.5,0.5v1.8     C17,7.7,16.8,7.9,16.5,7.9z"/></g><g><path d="M16.5,18.9h-9c-0.3,0-0.5-0.2-0.5-0.5s0.2-0.5,0.5-0.5H16v-1.3c0-0.3,0.2-0.5,0.5-0.5s0.5,0.2,0.5,0.5v1.8     C17,18.7,16.8,18.9,16.5,18.9z"/></g><g><path d="M9.4,18.9c-0.3,0-0.5-0.2-0.5-0.5V5.6c0-0.3,0.2-0.5,0.5-0.5s0.5,0.2,0.5,0.5v12.8C9.9,18.7,9.7,18.9,9.4,18.9z"/></g><g><path d="M13.7,12.5H9.4c-0.3,0-0.5-0.2-0.5-0.5s0.2-0.5,0.5-0.5h4.2c0.3,0,0.5,0.2,0.5,0.5S13.9,12.5,13.7,12.5z"/></g><g><path d="M13.7,13.7c-0.3,0-0.5-0.2-0.5-0.5v-2.5c0-0.3,0.2-0.5,0.5-0.5s0.5,0.2,0.5,0.5v2.5C14.2,13.5,13.9,13.7,13.7,13.7z"/></g></g></g></svg>